<mxfile host="app.diagrams.net" modified="2023-11-02T10:55:52.077Z" agent="Mozilla/5.0 (Windows NT 10.0; Win64; x64) AppleWebKit/537.36 (KHTML, like Gecko) Chrome/118.0.0.0 Safari/537.36 Edg/118.0.2088.76" etag="ks2W-WvYUI52YXX8Sh9h" version="22.0.8" type="github">
  <diagram name="第 1 页" id="Vn1sbeBvFft51jgw0HDi">
    <mxGraphModel dx="1120" dy="793" grid="1" gridSize="10" guides="1" tooltips="1" connect="1" arrows="1" fold="1" page="1" pageScale="1" pageWidth="1169" pageHeight="827" math="0" shadow="0">
      <root>
        <mxCell id="0" />
        <mxCell id="1" parent="0" />
        <mxCell id="QmaXBhxwRHXAnOEuA9TT-6" style="edgeStyle=orthogonalEdgeStyle;orthogonalLoop=1;jettySize=auto;html=1;curved=1;" edge="1" parent="1" source="QmaXBhxwRHXAnOEuA9TT-4" target="QmaXBhxwRHXAnOEuA9TT-8">
          <mxGeometry relative="1" as="geometry">
            <mxPoint x="450" y="350" as="targetPoint" />
          </mxGeometry>
        </mxCell>
        <mxCell id="QmaXBhxwRHXAnOEuA9TT-10" style="edgeStyle=orthogonalEdgeStyle;orthogonalLoop=1;jettySize=auto;html=1;entryX=0.5;entryY=0;entryDx=0;entryDy=0;curved=1;" edge="1" parent="1" source="QmaXBhxwRHXAnOEuA9TT-4" target="QmaXBhxwRHXAnOEuA9TT-9">
          <mxGeometry relative="1" as="geometry" />
        </mxCell>
        <mxCell id="QmaXBhxwRHXAnOEuA9TT-4" value="发送HTTP请求，查看待解析文件信息" style="rounded=1;whiteSpace=wrap;html=1;fillColor=#dae8fc;strokeColor=#6c8ebf;" vertex="1" parent="1">
          <mxGeometry x="440" y="170" width="120" height="60" as="geometry" />
        </mxCell>
        <mxCell id="QmaXBhxwRHXAnOEuA9TT-14" style="edgeStyle=orthogonalEdgeStyle;rounded=0;orthogonalLoop=1;jettySize=auto;html=1;entryX=0.5;entryY=0;entryDx=0;entryDy=0;" edge="1" parent="1" source="QmaXBhxwRHXAnOEuA9TT-8" target="QmaXBhxwRHXAnOEuA9TT-15">
          <mxGeometry relative="1" as="geometry">
            <mxPoint x="413" y="480" as="targetPoint" />
          </mxGeometry>
        </mxCell>
        <mxCell id="QmaXBhxwRHXAnOEuA9TT-8" value="查询到文件信息" style="rounded=1;whiteSpace=wrap;html=1;fillColor=#dae8fc;strokeColor=#6c8ebf;" vertex="1" parent="1">
          <mxGeometry x="353" y="360" width="120" height="60" as="geometry" />
        </mxCell>
        <mxCell id="QmaXBhxwRHXAnOEuA9TT-11" style="edgeStyle=orthogonalEdgeStyle;orthogonalLoop=1;jettySize=auto;html=1;entryX=0.5;entryY=0;entryDx=0;entryDy=0;curved=1;" edge="1" parent="1" source="QmaXBhxwRHXAnOEuA9TT-9" target="QmaXBhxwRHXAnOEuA9TT-12">
          <mxGeometry relative="1" as="geometry">
            <mxPoint x="583" y="480" as="targetPoint" />
          </mxGeometry>
        </mxCell>
        <mxCell id="QmaXBhxwRHXAnOEuA9TT-9" value="返回的值为空" style="rounded=1;whiteSpace=wrap;html=1;fillColor=#dae8fc;strokeColor=#6c8ebf;" vertex="1" parent="1">
          <mxGeometry x="523" y="360" width="120" height="60" as="geometry" />
        </mxCell>
        <mxCell id="QmaXBhxwRHXAnOEuA9TT-13" style="edgeStyle=orthogonalEdgeStyle;orthogonalLoop=1;jettySize=auto;html=1;entryX=0.5;entryY=0;entryDx=0;entryDy=0;curved=1;" edge="1" parent="1" source="QmaXBhxwRHXAnOEuA9TT-12" target="QmaXBhxwRHXAnOEuA9TT-4">
          <mxGeometry relative="1" as="geometry">
            <mxPoint x="500" y="120" as="targetPoint" />
            <Array as="points">
              <mxPoint x="721" y="500" />
              <mxPoint x="721" y="120" />
              <mxPoint x="500" y="120" />
            </Array>
          </mxGeometry>
        </mxCell>
        <mxCell id="QmaXBhxwRHXAnOEuA9TT-12" value="程序sleep 5秒钟" style="rounded=1;whiteSpace=wrap;html=1;fillColor=#dae8fc;strokeColor=#6c8ebf;" vertex="1" parent="1">
          <mxGeometry x="523" y="470" width="120" height="60" as="geometry" />
        </mxCell>
        <mxCell id="QmaXBhxwRHXAnOEuA9TT-17" style="edgeStyle=orthogonalEdgeStyle;rounded=0;orthogonalLoop=1;jettySize=auto;html=1;entryX=0.5;entryY=0;entryDx=0;entryDy=0;" edge="1" parent="1" source="QmaXBhxwRHXAnOEuA9TT-15" target="QmaXBhxwRHXAnOEuA9TT-16">
          <mxGeometry relative="1" as="geometry" />
        </mxCell>
        <mxCell id="QmaXBhxwRHXAnOEuA9TT-15" value="发送请求，更新对应的表信息为识别中" style="rounded=1;whiteSpace=wrap;html=1;fillColor=#dae8fc;strokeColor=#6c8ebf;" vertex="1" parent="1">
          <mxGeometry x="353" y="470" width="120" height="60" as="geometry" />
        </mxCell>
        <mxCell id="QmaXBhxwRHXAnOEuA9TT-18" style="edgeStyle=orthogonalEdgeStyle;rounded=0;orthogonalLoop=1;jettySize=auto;html=1;entryX=0.5;entryY=0;entryDx=0;entryDy=0;" edge="1" parent="1" source="QmaXBhxwRHXAnOEuA9TT-16" target="QmaXBhxwRHXAnOEuA9TT-19">
          <mxGeometry relative="1" as="geometry">
            <mxPoint x="413" y="680" as="targetPoint" />
          </mxGeometry>
        </mxCell>
        <mxCell id="QmaXBhxwRHXAnOEuA9TT-16" value="执行RPA点击流程" style="rounded=1;whiteSpace=wrap;html=1;fillColor=#dae8fc;strokeColor=#6c8ebf;" vertex="1" parent="1">
          <mxGeometry x="353" y="570" width="120" height="60" as="geometry" />
        </mxCell>
        <mxCell id="QmaXBhxwRHXAnOEuA9TT-20" style="edgeStyle=orthogonalEdgeStyle;orthogonalLoop=1;jettySize=auto;html=1;entryX=0.5;entryY=0;entryDx=0;entryDy=0;curved=1;" edge="1" parent="1" source="QmaXBhxwRHXAnOEuA9TT-19" target="QmaXBhxwRHXAnOEuA9TT-4">
          <mxGeometry relative="1" as="geometry">
            <mxPoint x="500" y="110" as="targetPoint" />
            <Array as="points">
              <mxPoint x="413" y="770" />
              <mxPoint x="320" y="770" />
              <mxPoint x="320" y="110" />
              <mxPoint x="500" y="110" />
            </Array>
          </mxGeometry>
        </mxCell>
        <mxCell id="QmaXBhxwRHXAnOEuA9TT-19" value="导出完成" style="rounded=1;whiteSpace=wrap;html=1;fillColor=#dae8fc;strokeColor=#6c8ebf;" vertex="1" parent="1">
          <mxGeometry x="353" y="670" width="120" height="60" as="geometry" />
        </mxCell>
      </root>
    </mxGraphModel>
  </diagram>
</mxfile>
